<?xml version="1.0" encoding="UTF-8"?>
<svg width="259px" height="93px" viewBox="0 0 259 93" version="1.1" xmlns="http://www.w3.org/2000/svg" xmlns:xlink="http://www.w3.org/1999/xlink">
    <!-- Generator: Sketch 47.1 (45422) - http://www.bohemiancoding.com/sketch -->
    <title>coveo_logo</title>
    <desc>Created with Sketch.</desc>
    <defs></defs>
    <g id="Page-1" stroke="none" stroke-width="1" fill="none" fill-rule="evenodd">
        <g id="coveo_logo" fill-rule="nonzero">
            <path d="M34.73,60.22 C31.7193532,56.5016564 27.1843154,54.3499961 22.4,54.37 C14.28,54.37 8.12,61.51 8.12,69.46 C8.12,78.39 14.29,84.72 23.05,84.72 C27.76,84.72 31.65,82.45 34.9,79.04 L34.9,89.6 C31.2354652,91.5414543 27.1469809,92.544679 23,92.52 C10.34,92.52 0,82.78 0,69.8 C0,56.48 10.39,46.58 23.54,46.58 C27.5175308,46.5481211 31.434082,47.5582879 34.9,49.51 L34.73,60.22 Z" id="Shape" fill="#FFFFFF"></path>
            <path d="M57.46,69.63 C57.5481388,77.765835 64.1994109,84.2982176 72.3355123,84.2396169 C80.4716137,84.1810162 87.028101,77.553504 86.9990391,69.4172435 C86.9699773,61.2809829 80.3663124,54.7004774 72.23,54.7 C64.0308371,54.7495677 57.4212262,61.4307789 57.46,69.63 M95.12,69.63 C95.2022307,75.7448119 92.8018184,81.6317053 88.4672496,85.9455435 C84.1326808,90.2593817 78.2343474,92.6315445 72.12,92.52 C63.8299407,92.6933029 56.0943569,88.3697465 51.8984908,81.2178359 C47.7026246,74.0659253 47.7026246,65.2040747 51.8984908,58.0521641 C56.0943569,50.9002535 63.8299407,46.5766971 72.12,46.75 C78.2343474,46.6384555 84.1326808,49.0106183 88.4672496,53.3244565 C92.8018184,57.6382947 95.2022307,63.5251881 95.12,69.64" id="Shape" fill="#FFFFFF"></path>
            <polygon id="Shape" fill="#FFFFFF" points="126.6 74.99 139.1 48.04 148.35 48.04 126.6 92.68 105.02 48.04 114.27 48.04"></polygon>
            <path d="M191.53,64.76 C190.53,58.27 186.34,54.05 179.68,54.05 C173.19,54.05 168.48,58.6 167.34,64.76 L191.53,64.76 Z M167,70.93 C167,78.23 172,85.21 180,85.21 C186.33,85.21 189.74,81.96 192.82,76.77 L199.82,80.67 C195.890306,88.0458573 188.176826,92.6160944 179.82,92.52 C166.67,92.52 158.72,82.62 158.72,69.8 C158.72,56.49 165.86,46.59 179.66,46.59 C193.46,46.59 199.8,56.65 199.8,69.47 L199.8,70.93 L167,70.93 Z" id="Shape" fill="#FFFFFF"></path>
            <path d="M220.58,69.63 C220.668139,77.765835 227.319411,84.2982176 235.455512,84.2396169 C243.591614,84.1810162 250.148101,77.553504 250.119039,69.4172435 C250.089977,61.2809829 243.486312,54.7004774 235.35,54.7 C227.150837,54.7495677 220.541226,61.4307789 220.58,69.63 M258.4,69.63 C258.444539,78.9425123 252.869095,87.3628479 244.278206,90.9574957 C235.687317,94.5521436 225.776619,92.6116057 219.175838,86.0423932 C212.575056,79.4731807 210.587028,69.5718998 214.14045,60.9638765 C217.693871,52.3558532 226.087381,46.7401065 235.4,46.74 C241.514347,46.6284555 247.412681,49.0006183 251.74725,53.3144565 C256.081818,57.6282947 258.482231,63.5151881 258.4,69.63" id="Shape" fill="#FFFFFF"></path>
            <polygon id="Shape" fill="#F58020" points="197.04 20.53 161.34 0 161.34 41.06"></polygon>
        </g>
    </g>
</svg>